<svg xmlns="http://www.w3.org/2000/svg" xmlns:xlink="http://www.w3.org/1999/xlink" width="349.712" height="55.209" viewBox="0 0 349.712 55.209">
  <defs>
    <clipPath id="clip-path">
      <rect id="Прямоугольник_1098" data-name="Прямоугольник 1098" width="349.712" height="55.209" fill="none"/>
    </clipPath>
  </defs>
  <g id="Сгруппировать_330" data-name="Сгруппировать 330" transform="translate(0.001 0)">
    <path id="Контур_234" data-name="Контур 234" d="M34.812,0l-8.7,18.362L17.407,0l-8.7,18.362L0,0V26.3H34.812Z" transform="translate(0)" fill="#b59658"/>
    <path id="Контур_235" data-name="Контур 235" d="M17.4,51.895,0,34.839v26.3H34.812v-26.3Z" transform="translate(0 -5.929)" fill="#eb1a39"/>
    <g id="Сгруппировать_329" data-name="Сгруппировать 329" transform="translate(0 0)">
      <g id="Сгруппировать_328" data-name="Сгруппировать 328" clip-path="url(#clip-path)">
        <path id="Контур_236" data-name="Контур 236" d="M79.414,17.069V29.878a14.376,14.376,0,0,1-4.189,1.59,22.494,22.494,0,0,1-5.015.558,17.588,17.588,0,0,1-6.419-1.115A14.6,14.6,0,0,1,58.9,27.854a13.032,13.032,0,0,1-3.1-4.628,15.673,15.673,0,0,1-1.074-5.867,16.292,16.292,0,0,1,1.28-6.549,15.875,15.875,0,0,1,3.446-5.083,15.527,15.527,0,0,1,5.036-3.306A15.784,15.784,0,0,1,70.54,1.245a18.509,18.509,0,0,1,2.25.144,19.3,19.3,0,0,1,2.332.433,22.279,22.279,0,0,1,2.229.682,10.669,10.669,0,0,1,1.94.929L76.814,7.566a6.2,6.2,0,0,0-1.382-.64c-.536-.179-1.095-.337-1.671-.475a15.516,15.516,0,0,0-1.713-.31,13.173,13.173,0,0,0-1.591-.1,9.867,9.867,0,0,0-4.024.846,11.505,11.505,0,0,0-3.406,2.294,10.946,10.946,0,0,0-2.374,3.45,10.447,10.447,0,0,0-.886,4.276,10,10,0,0,0,.783,3.926,10.4,10.4,0,0,0,2.188,3.285,10.537,10.537,0,0,0,7.594,3.119,18.23,18.23,0,0,0,2.065-.145,11.681,11.681,0,0,0,2.353-.516V21.449H69.136v-4.38Z" transform="translate(-9.315 -0.212)" fill="#fff"/>
        <path id="Контур_237" data-name="Контур 237" d="M97.641,19.295h6.852l-2.972-7.189a2.94,2.94,0,0,1-.207-.558,8.531,8.531,0,0,1-.247-.929,8.748,8.748,0,0,1-.248.929,5.707,5.707,0,0,0-.164.558ZM109.57,31.484c-.082-.193-.227-.538-.433-1.033s-.461-1.1-.763-1.817-.634-1.509-.991-2.377-.729-1.769-1.115-2.706H95.908l-3.3,7.933H87.611q.163-.372.783-1.838t1.548-3.636q.929-2.17,2.064-4.834t2.332-5.434q1.2-2.768,2.332-5.434t2.065-4.834q.929-2.171,1.548-3.636T101.067,0q.163.371.8,1.838t1.568,3.636q.93,2.168,2.064,4.834t2.333,5.434q1.2,2.769,2.333,5.434t2.063,4.834q.93,2.168,1.548,3.636t.784,1.838Z" transform="translate(-14.911 0)" fill="#fff"/>
        <path id="Контур_238" data-name="Контур 238" d="M139.169,1.643V6.476h-7.431V31.763h-5.076V6.476H119.4V1.643Z" transform="translate(-20.32 -0.28)" fill="#fff"/>
        <path id="Контур_239" data-name="Контур 239" d="M149.987,31.764V1.643h19.978V6.229H155.023v8.1h13.291v4.71H155.023v8.015h15.521v4.711Z" transform="translate(-25.526 -0.28)" fill="#fff"/>
        <path id="Контур_240" data-name="Контур 240" d="M216.238,1.842q-1.486,3.927-3.1,8.119t-3.2,8.3q-1.591,4.113-3.055,7.912t-2.621,6.942L197.5,16.345c-.11-.249-.179-.414-.207-.5s-.068-.248-.124-.5a2.439,2.439,0,0,0-.061.331,1.658,1.658,0,0,1-.063.29,1.61,1.61,0,0,1-.123.329q-1.486,3.265-2.849,6.363-.579,1.322-1.217,2.747t-1.26,2.81q-.619,1.385-1.2,2.665T189.366,33.2q-2.971-7.89-5.985-15.68T177.4,1.842h5.738q1.858,5.248,3.571,9.875t2.662,8.223c.055.222.11.468.165.744s.11.524.165.744a2.192,2.192,0,0,1,.186-.724c.124-.316.212-.558.268-.723a4.648,4.648,0,0,1,.29-.764q.248-.558.578-1.3t.744-1.632q.412-.887.825-1.8.991-2.107,2.147-4.628-.579-1.735-1.073-3.305-.456-1.321-.887-2.665t-.641-2.045H197q1.775,4.586,3.22,8.388.619,1.612,1.239,3.2t1.114,2.933q.5,1.343.846,2.293t.475,1.281a2.545,2.545,0,0,1,.207.723,6.857,6.857,0,0,0,.124.724c.055-.249.1-.5.145-.745s.089-.48.144-.7a38.438,38.438,0,0,1,1.135-3.986q.721-2.128,1.589-4.443t1.838-4.751q.967-2.437,1.876-4.917Z" transform="translate(-30.191 -0.314)" fill="#fff"/>
        <path id="Контур_241" data-name="Контур 241" d="M232.195,19.295h6.852l-2.972-7.189a2.939,2.939,0,0,1-.207-.558,8.724,8.724,0,0,1-.247-.929,8.954,8.954,0,0,1-.248.929,5.707,5.707,0,0,0-.164.558Zm11.929,12.189c-.082-.193-.227-.538-.433-1.033s-.461-1.1-.763-1.817-.634-1.509-.991-2.377-.729-1.769-1.115-2.706H230.462l-3.3,7.933h-4.994q.163-.372.784-1.838T224.5,26.01q.93-2.17,2.064-4.834t2.332-5.434q1.2-2.768,2.332-5.434t2.065-4.834q.93-2.171,1.548-3.636T235.621,0q.163.371.8,1.838t1.568,3.636q.93,2.168,2.065,4.834t2.332,5.434q1.2,2.769,2.333,5.434t2.063,4.834q.93,2.168,1.548,3.636t.785,1.838Z" transform="translate(-37.81 0)" fill="#fff"/>
        <path id="Контур_242" data-name="Контур 242" d="M267.785,22.012v9.751h-5.078V22.012q-.207-.289-1.031-1.838t-2.022-3.719q-1.2-2.17-2.518-4.628T254.617,7.2q-1.2-2.17-2.023-3.718t-1.032-1.84H257.3q.164.29.641,1.178t1.134,2.148q.661,1.261,1.445,2.767t1.568,3.017q.784,1.509,1.487,2.891t1.238,2.417l.454,1.406a4.993,4.993,0,0,0,.289-.723,7,7,0,0,1,.248-.683q.535-1.032,1.237-2.417t1.465-2.891l1.528-3.017q.763-1.507,1.4-2.767t1.095-2.148q.454-.889.619-1.178h5.738Z" transform="translate(-42.814 -0.28)" fill="#fff"/>
        <path id="Контур_243" data-name="Контур 243" d="M321.613,17.069V29.878a14.376,14.376,0,0,1-4.189,1.59,22.494,22.494,0,0,1-5.015.558,17.588,17.588,0,0,1-6.419-1.115,14.6,14.6,0,0,1-4.891-3.058,13.032,13.032,0,0,1-3.1-4.628,15.673,15.673,0,0,1-1.074-5.867,16.293,16.293,0,0,1,1.28-6.549,15.876,15.876,0,0,1,3.446-5.083,15.526,15.526,0,0,1,5.036-3.306,15.784,15.784,0,0,1,6.048-1.177,18.509,18.509,0,0,1,2.25.144,19.3,19.3,0,0,1,2.332.433,22.279,22.279,0,0,1,2.229.682,10.669,10.669,0,0,1,1.94.929l-2.477,4.132a6.2,6.2,0,0,0-1.382-.64c-.536-.179-1.095-.337-1.671-.475a15.5,15.5,0,0,0-1.714-.31,13.149,13.149,0,0,0-1.59-.1,9.868,9.868,0,0,0-4.024.846,11.505,11.505,0,0,0-3.406,2.294,10.946,10.946,0,0,0-2.374,3.45,10.447,10.447,0,0,0-.886,4.276,10,10,0,0,0,.783,3.926,10.4,10.4,0,0,0,2.188,3.285,10.541,10.541,0,0,0,7.594,3.119,18.23,18.23,0,0,0,2.065-.145,11.681,11.681,0,0,0,2.353-.516V21.449h-5.614v-4.38Z" transform="translate(-50.535 -0.212)" fill="#fff"/>
        <path id="Контур_244" data-name="Контур 244" d="M345.28,32.094a12.761,12.761,0,0,1-4.561-.806,11.258,11.258,0,0,1-3.7-2.252,10.447,10.447,0,0,1-2.477-3.491,11.022,11.022,0,0,1-.908-4.525V1.642h5.036V20.9a6.018,6.018,0,0,0,.515,2.479,6.507,6.507,0,0,0,1.4,2.025,6.786,6.786,0,0,0,2.084,1.384,6.479,6.479,0,0,0,2.6.517,6.635,6.635,0,0,0,2.621-.517,6.982,6.982,0,0,0,2.126-1.384,6.347,6.347,0,0,0,1.423-2.025,5.992,5.992,0,0,0,.516-2.479V1.642H357V21.021a11.022,11.022,0,0,1-.908,4.525,10.328,10.328,0,0,1-2.5,3.491,11.452,11.452,0,0,1-3.735,2.252,12.945,12.945,0,0,1-4.582.806" transform="translate(-56.782 -0.28)" fill="#fff"/>
        <path id="Контур_245" data-name="Контур 245" d="M370.3,31.764V1.643h5.036V26.971h14.612v4.793Z" transform="translate(-63.022 -0.28)" fill="#fff"/>
        <path id="Контур_246" data-name="Контур 246" d="M399.4,31.764V1.643h18.286V6.312h-13.25v8.429h11.517v4.71H404.435V31.764Z" transform="translate(-67.974 -0.28)" fill="#fff"/>
        <rect id="Прямоугольник_1096" data-name="Прямоугольник 1096" width="1.065" height="12.37" transform="translate(48.204 42.085)" fill="#fff"/>
        <path id="Контур_247" data-name="Контур 247" d="M73.163,60.844l-9.154-10.4-.034-.038h-.217V63.035h1.048l-.015-10.063,9.154,10.316.034.038h.2V50.665H73.148Z" transform="translate(-10.851 -8.579)" fill="#fff"/>
        <path id="Контур_248" data-name="Контур 248" d="M84.691,61.267,80.535,50.718H79.314l5.333,13.123,5.334-13.123h-1.2Z" transform="translate(-13.498 -8.632)" fill="#fff"/>
        <path id="Контур_249" data-name="Контур 249" d="M96.232,57.375h5.985V56.344H96.232v-4.6h6.653V50.717H95.167v12.37h7.957V62.056H96.232Z" transform="translate(-16.197 -8.632)" fill="#fff"/>
        <path id="Контур_250" data-name="Контур 250" d="M114.109,57.176a5.072,5.072,0,0,0-1.093-.682c-.395-.183-.8-.351-1.2-.5-.5-.2-.978-.4-1.412-.6a3.293,3.293,0,0,1-1.042-.742,1.51,1.51,0,0,1-.381-1.061,1.758,1.758,0,0,1,.677-1.418,2.8,2.8,0,0,1,1.843-.572,5.426,5.426,0,0,1,1.507.218,8.173,8.173,0,0,1,1.282.472l.1.049.425-.851-.1-.051a7.061,7.061,0,0,0-1.556-.574,7.233,7.233,0,0,0-1.766-.226,4.229,4.229,0,0,0-1.782.4,3.139,3.139,0,0,0-1.251,1.056,2.749,2.749,0,0,0-.465,1.586,2.5,2.5,0,0,0,.3,1.253,2.794,2.794,0,0,0,.793.882,5.412,5.412,0,0,0,1.083.612c.38.162.773.321,1.168.472a12.53,12.53,0,0,1,1.407.61,3.206,3.206,0,0,1,1.057.851,2.1,2.1,0,0,1,.4,1.338,2.285,2.285,0,0,1-.43,1.427,2.675,2.675,0,0,1-1.1.846,3.849,3.849,0,0,1-2.617.1,6.9,6.9,0,0,1-1.153-.453,6.608,6.608,0,0,1-.9-.539l-.1-.076-.51.89.092.057c.216.137.514.308.887.509a7.1,7.1,0,0,0,1.322.531,5.926,5.926,0,0,0,1.683.227,4.513,4.513,0,0,0,2.034-.439,3.344,3.344,0,0,0,1.381-1.248,3.468,3.468,0,0,0,.5-1.847,3.412,3.412,0,0,0-.294-1.487,2.988,2.988,0,0,0-.791-1.012" transform="translate(-18.261 -8.618)" fill="#fff"/>
        <path id="Контур_251" data-name="Контур 251" d="M119.135,51.749h3.54V63.088h1.065V51.749h3.575V50.718h-8.18Z" transform="translate(-20.276 -8.632)" fill="#fff"/>
        <path id="Контур_252" data-name="Контур 252" d="M143.868,50.388l-5.747,8.135-5.7-8.087-.051-.048H132.2V63.031h1.048V53.391L138,60.042l.034.047h.152l4.82-6.792v9.734h1.049V50.5l-.017-.114Z" transform="translate(-22.5 -8.576)" fill="#fff"/>
        <path id="Контур_253" data-name="Контур 253" d="M151.939,57.375h5.985V56.344h-5.985v-4.6h6.653V50.717h-7.718v12.37h7.957V62.056h-6.892Z" transform="translate(-25.677 -8.632)" fill="#fff"/>
        <path id="Контур_254" data-name="Контур 254" d="M173.448,60.844l-9.154-10.4-.034-.038h-.217V63.035h1.048l-.015-10.063,9.154,10.316.034.038h.2V50.665h-1.031Z" transform="translate(-27.919 -8.579)" fill="#fff"/>
        <path id="Контур_255" data-name="Контур 255" d="M179.808,51.749h3.54V63.088h1.065V51.749h3.575V50.718h-8.18Z" transform="translate(-30.602 -8.632)" fill="#fff"/>
        <path id="Контур_256" data-name="Контур 256" d="M199.2,63.087h1.065V57.546h5.284V56.532h-5.284V51.749h5.969V50.718H199.2Z" transform="translate(-33.902 -8.632)" fill="#fff"/>
        <path id="Контур_257" data-name="Контур 257" d="M220.967,52.426a6.409,6.409,0,0,0-2.02-1.377,6.161,6.161,0,0,0-2.456-.5,6.09,6.09,0,0,0-2.448.5,6.459,6.459,0,0,0-3.368,3.395,6.178,6.178,0,0,0-.489,2.447,6.389,6.389,0,0,0,.488,2.508,6.158,6.158,0,0,0,1.359,2,6.289,6.289,0,0,0,2.011,1.324,6.387,6.387,0,0,0,2.446.471,6.263,6.263,0,0,0,2.456-.488,6.366,6.366,0,0,0,2.019-1.358,6.488,6.488,0,0,0,1.367-2.011,6.278,6.278,0,0,0,0-4.9,6.591,6.591,0,0,0-1.366-2.018m-4.476-.841a5.044,5.044,0,0,1,2.04.418,5.358,5.358,0,0,1,2.806,2.839,5.352,5.352,0,0,1,0,4.108,5.3,5.3,0,0,1-2.8,2.806,5.175,5.175,0,0,1-2.058.41,5.039,5.039,0,0,1-2.016-.409,5.363,5.363,0,0,1-1.667-1.132,5.2,5.2,0,0,1-1.523-3.716,5.322,5.322,0,0,1,3.166-4.9,5,5,0,0,1,2.056-.427" transform="translate(-35.772 -8.604)" fill="#fff"/>
        <path id="Контур_258" data-name="Контур 258" d="M234.805,56.825a3.264,3.264,0,0,0,.691-1.2,4.449,4.449,0,0,0,.211-1.36,3.427,3.427,0,0,0-.355-1.61,3.288,3.288,0,0,0-.93-1.106,3.933,3.933,0,0,0-1.268-.635,4.984,4.984,0,0,0-1.391-.2h-2.884v12.37h1.065v-5.1h1.767a6.311,6.311,0,0,0,.856-.056l3.168,5.152h1.241l-3.323-5.449a3.369,3.369,0,0,0,1.153-.813m-.321-1.606a2.424,2.424,0,0,1-.466.858,2.371,2.371,0,0,1-.9.635,3.737,3.737,0,0,1-1.46.247h-1.716v-5.21h1.938a3.031,3.031,0,0,1,1.137.2,2.675,2.675,0,0,1,.87.557,2.435,2.435,0,0,1,.548.808,2.6,2.6,0,0,1,.188.983,3.2,3.2,0,0,1-.14.917" transform="translate(-38.953 -8.632)" fill="#fff"/>
        <path id="Контур_259" data-name="Контур 259" d="M249.383,58.869a3.559,3.559,0,0,1-.422,1.774,2.952,2.952,0,0,1-1.153,1.145,3.451,3.451,0,0,1-1.681.4,3.363,3.363,0,0,1-1.655-.4,2.959,2.959,0,0,1-1.144-1.145,3.558,3.558,0,0,1-.422-1.774V50.717h-1.066v8.2a4.538,4.538,0,0,0,.563,2.314,3.777,3.777,0,0,0,1.542,1.48,4.927,4.927,0,0,0,4.364,0,3.834,3.834,0,0,0,1.549-1.48,4.48,4.48,0,0,0,.573-2.314v-8.2h-1.049Z" transform="translate(-41.159 -8.632)" fill="#fff"/>
        <path id="Контур_260" data-name="Контур 260" d="M268.161,50.388l-5.747,8.135-5.7-8.087-.051-.048h-.173V63.031h1.048V53.391l4.753,6.652.034.047h.152L267.3,53.3v9.734h1.049V50.5l-.017-.114Z" transform="translate(-43.653 -8.576)" fill="#fff"/>
        <path id="Контур_261" data-name="Контур 261" d="M286.935,56.98a3.962,3.962,0,0,0-.457-.2,2.767,2.767,0,0,0,.351-.21,2.835,2.835,0,0,0,.953-1.14,3.606,3.606,0,0,0,.318-1.519,2.87,2.87,0,0,0-1.012-2.442,4.6,4.6,0,0,0-2.8-.75h-2.8v12.37h3.277a5.321,5.321,0,0,0,1.469-.2,3.889,3.889,0,0,0,1.259-.617,3.056,3.056,0,0,0,.888-1.048,3.164,3.164,0,0,0,.329-1.48,2.822,2.822,0,0,0-.49-1.646,3.5,3.5,0,0,0-1.29-1.114m-4.376.446h2.127a4.188,4.188,0,0,1,1.4.241,2.589,2.589,0,0,1,1.115.753,2.021,2.021,0,0,1,.435,1.354,2.086,2.086,0,0,1-.388,1.283,2.32,2.32,0,0,1-1.045.774,4.026,4.026,0,0,1-1.464.257h-2.177Zm0-1.031V51.748h1.767a3.259,3.259,0,0,1,1.976.543,2.07,2.07,0,0,1,.715,1.772,2.568,2.568,0,0,1-.548,1.673,2.189,2.189,0,0,1-1.784.66Z" transform="translate(-47.908 -8.632)" fill="#b59658"/>
        <path id="Контур_262" data-name="Контур 262" d="M298.065,50.946l-.085.048-.37-.915h-.222l-5.159,12.743-.063.157h1.084l1.609-4.019h5.205l1.582,4.019h1.187l-4.819-11.9Zm-2.8,7,2.218-5.542,2.182,5.542Z" transform="translate(-49.724 -8.523)" fill="#b59658"/>
        <path id="Контур_263" data-name="Контур 263" d="M316.217,56.361h-7.092V50.718h-1.066v12.37h1.066V57.376h7.092v5.712h1.065V50.718h-1.065Z" transform="translate(-52.429 -8.632)" fill="#b59658"/>
        <path id="Контур_264" data-name="Контур 264" d="M329.484,56.825a3.264,3.264,0,0,0,.691-1.2,4.45,4.45,0,0,0,.211-1.36,3.427,3.427,0,0,0-.355-1.61,3.288,3.288,0,0,0-.93-1.106,3.932,3.932,0,0,0-1.268-.635,4.985,4.985,0,0,0-1.391-.2h-2.884v12.37h1.065v-5.1h1.767a6.313,6.313,0,0,0,.856-.056l3.168,5.152h1.241l-3.323-5.449a3.37,3.37,0,0,0,1.153-.813m-.321-1.606a2.425,2.425,0,0,1-.466.858,2.371,2.371,0,0,1-.9.635,3.737,3.737,0,0,1-1.46.247h-1.716v-5.21h1.938a3.031,3.031,0,0,1,1.137.2,2.675,2.675,0,0,1,.87.557,2.434,2.434,0,0,1,.548.808,2.6,2.6,0,0,1,.188.983,3.228,3.228,0,0,1-.14.917" transform="translate(-55.066 -8.632)" fill="#b59658"/>
        <path id="Контур_265" data-name="Контур 265" d="M341.159,50.946l-.085.048-.37-.915h-.222l-5.159,12.743-.063.157h1.084l1.609-4.019h5.205l1.582,4.019h1.187l-4.819-11.9Zm-2.8,7,2.218-5.542,2.182,5.542Z" transform="translate(-57.058 -8.523)" fill="#b59658"/>
        <rect id="Прямоугольник_1097" data-name="Прямоугольник 1097" width="1.065" height="12.37" transform="translate(291.39 42.085)" fill="#b59658"/>
        <path id="Контур_266" data-name="Контур 266" d="M366.225,60.844l-9.154-10.4-.034-.038h-.217V63.035h1.048l-.015-10.063,9.154,10.316.034.038h.2V50.665h-1.031Z" transform="translate(-60.727 -8.579)" fill="#b59658"/>
        <path id="Контур_267" data-name="Контур 267" d="M382.357,60.829c.563-.589,1.095-1.2,1.58-1.8a9.762,9.762,0,0,0,1.185-1.851,4.391,4.391,0,0,0,.456-1.914,3.867,3.867,0,0,0-.415-1.788,3.222,3.222,0,0,0-1.169-1.275,3.287,3.287,0,0,0-1.763-.471,3.752,3.752,0,0,0-1.922.47,3.1,3.1,0,0,0-1.206,1.26,3.851,3.851,0,0,0-.291,2.653,3.033,3.033,0,0,0,.346.844,2.857,2.857,0,0,0,.552.668l.076.067.676-.608L380.382,57a2.187,2.187,0,0,1-.471-.781,3.111,3.111,0,0,1-.049-1.839,2.488,2.488,0,0,1,.385-.793,2.008,2.008,0,0,1,.721-.607,2.53,2.53,0,0,1,1.162-.236,2.568,2.568,0,0,1,.81.14,2.273,2.273,0,0,1,.766.44,2.24,2.24,0,0,1,.569.79,2.981,2.981,0,0,1,.221,1.219,3.859,3.859,0,0,1-.458,1.744,10.737,10.737,0,0,1-1.26,1.886c-.527.646-1.138,1.321-1.814,2.01s-1.385,1.391-2.11,2.094l-.2.2h7.544V62.228h-5.151c.418-.451.859-.919,1.314-1.4" transform="translate(-64.443 -8.804)" fill="#b59658"/>
        <path id="Контур_268" data-name="Контур 268" d="M397.277,53.463a4.348,4.348,0,0,0-1.5-1.246,4.44,4.44,0,0,0-2.026-.448,4.7,4.7,0,0,0-2.05.43,4.208,4.208,0,0,0-1.512,1.221,5.563,5.563,0,0,0-.925,1.843,8,8,0,0,0-.313,2.28,7.71,7.71,0,0,0,.321,2.248,5.879,5.879,0,0,0,.934,1.856,4.3,4.3,0,0,0,1.511,1.256,4.5,4.5,0,0,0,2.034.448,4.44,4.44,0,0,0,2.026-.448,4.36,4.36,0,0,0,1.5-1.246,5.783,5.783,0,0,0,.934-1.85,7.738,7.738,0,0,0,.321-2.265,7.614,7.614,0,0,0-.321-2.24,5.835,5.835,0,0,0-.934-1.84m.172,4.079a6.326,6.326,0,0,1-.477,2.562,3.8,3.8,0,0,1-1.311,1.646,3.353,3.353,0,0,1-1.928.57,3.307,3.307,0,0,1-1.919-.569,3.759,3.759,0,0,1-1.294-1.646,6.916,6.916,0,0,1,0-5.1,3.816,3.816,0,0,1,1.294-1.645,3.17,3.17,0,0,1,1.859-.563l.061,0a3.288,3.288,0,0,1,1.926.561,3.871,3.871,0,0,1,1.312,1.646,6.221,6.221,0,0,1,.477,2.536" transform="translate(-66.196 -8.811)" fill="#b59658"/>
        <path id="Контур_269" data-name="Контур 269" d="M405.562,60.829c.563-.589,1.094-1.2,1.58-1.8a9.761,9.761,0,0,0,1.185-1.851,4.39,4.39,0,0,0,.456-1.914,3.867,3.867,0,0,0-.415-1.788A3.222,3.222,0,0,0,407.2,52.2a3.287,3.287,0,0,0-1.763-.471,3.752,3.752,0,0,0-1.922.47,3.1,3.1,0,0,0-1.206,1.26,3.851,3.851,0,0,0-.291,2.653,3.031,3.031,0,0,0,.346.844,2.86,2.86,0,0,0,.552.668l.076.067.675-.608L403.587,57a2.187,2.187,0,0,1-.471-.781,3.111,3.111,0,0,1-.049-1.839,2.489,2.489,0,0,1,.385-.793,2,2,0,0,1,.721-.607,2.53,2.53,0,0,1,1.162-.236,2.568,2.568,0,0,1,.81.14,2.274,2.274,0,0,1,.766.44,2.24,2.24,0,0,1,.569.79,2.98,2.98,0,0,1,.221,1.219,3.859,3.859,0,0,1-.458,1.744,10.737,10.737,0,0,1-1.26,1.886c-.527.646-1.138,1.321-1.814,2.01s-1.385,1.391-2.11,2.094l-.2.2H409.4V62.228h-5.151c.418-.451.859-.919,1.314-1.4" transform="translate(-68.392 -8.804)" fill="#b59658"/>
        <path id="Контур_270" data-name="Контур 270" d="M418.157,59.406V51.842l-.017-.115h-.169l-.783,1-.1-.462v.585l-5.112,6.552h-.331l.277.07-.512.655V60.3h5.678V63.26h1.065V60.3h1.573v-.9Zm-5.026,0,3.961-5.068v5.068Z" transform="translate(-70.019 -8.804)" fill="#b59658"/>
      </g>
    </g>
  </g>
</svg>
